<svg width="97" height="81" viewBox="0 0 97 81" fill="none" xmlns="http://www.w3.org/2000/svg">
<g clip-path="url(#clip0_35_1134)">
<path d="M95.7727 69.7173C91.2048 80.7897 81.1862 82.3169 65.1411 80.217C53.0689 78.6325 42.0715 77.4107 30.0184 68.4765C21.5736 62.2339 14.8946 53.777 10.0196 45.5681C4.74163 36.6721 -2.64757 26.5351 0.979858 16.4555C5.93158 2.57686 34.6823 -9.0873 62.5885 10.003C93.2585 30.9641 100.245 58.8741 95.7727 69.7173Z" fill="#F2FFEC"/>
<path fill-rule="evenodd" clip-rule="evenodd" d="M59.7079 27.4329C60.6675 25.2566 61.2625 22.8512 61.2625 20.2931C61.2625 10.958 54.1036 3.37915 45.2558 3.37915C36.4079 3.37915 29.249 10.958 29.249 20.2931C29.249 23.3094 30.0551 26.0966 31.3602 28.5401" fill="#DF5426"/>
<path fill-rule="evenodd" clip-rule="evenodd" d="M76.0797 18.613V28.2345C79.0738 30.6781 81.4537 33.7134 82.874 37.207H86.5206C88.8237 37.207 90.7046 38.8869 90.7046 40.9677V52.5174C90.7046 54.5982 88.8429 56.2781 86.5206 56.2781H81.0506C78.8627 59.6953 75.6959 62.5397 71.9149 64.5251V71.3404C71.9149 73.4212 70.0532 75.1011 67.7309 75.1011H61.9347C59.6316 75.1011 59.478 73.4212 59.478 71.3404L59.3629 67.5796H34.9689V70.844C34.9689 72.9249 35.775 74.6048 33.4719 74.6048H28.0787C25.7756 74.6048 23.8947 72.9249 23.8947 70.844V61.7952C18.7703 57.6526 15.5459 51.6774 15.5459 44.9958C15.5459 32.5108 26.7544 22.3929 40.5924 22.3929H59.4972C61.2821 22.3929 63.0287 21.8584 64.4489 20.8848C66.541 19.4721 69.1128 18.613 71.9149 18.613H76.0797Z" fill="#46B249" stroke="white" stroke-width="2.42" stroke-linecap="round" stroke-linejoin="round"/>
<path d="M72.4137 37.417C72.6632 37.6842 72.6632 38.1233 72.4137 38.4097C72.1642 38.6769 71.7612 38.6769 71.5309 38.4097C71.2814 38.1424 71.2814 37.7033 71.5309 37.417C71.742 37.1688 72.1258 37.1497 72.3754 37.3597C72.3754 37.3788 72.3945 37.3979 72.4137 37.417Z" stroke="white" stroke-width="2.75" stroke-linecap="round" stroke-linejoin="round"/>
</g>
<defs>
<clipPath id="clip0_35_1134">
<rect width="97" height="81" fill="white"/>
</clipPath>
</defs>
</svg>
