<svg width="94" height="88" viewBox="0 0 94 88" fill="none" xmlns="http://www.w3.org/2000/svg">
<path d="M8.97488 23.8587C0.143292 37.5759 -2.36085 55.3532 2.31206 71.066C4.43612 78.2228 8.72894 85.5631 15.7719 87.4899C20.7354 88.8662 25.9897 87.2376 30.7297 85.219C35.4697 83.2004 40.2096 80.7689 45.3297 80.4249C56.263 79.7138 66.8386 88.6827 77.3694 85.6319C82.1988 84.2326 86.1339 80.379 88.5486 75.8601C90.9633 71.3412 92.0366 66.1801 92.5732 61.0419C94.1159 46.5677 91.567 31.2678 83.4509 19.3169C76.6539 9.29279 66.0337 2.4342 54.2508 0.782629C48.5717 0.00272231 44.4801 -0.639554 38.8234 1.14964C33.1891 2.9159 27.8231 5.62264 22.9936 9.13222C17.4935 13.1006 12.6864 18.1011 8.97488 23.8587Z" fill="#F2FFEC"/>
<path d="M66.1083 15.1228C57.7447 15.9545 48.0605 14.5142 40.177 10.7411L39.9169 7.21143L35.2949 7.92142C26.6111 15.7719 16.987 20.3564 5.62201 21.6953C4.24141 21.8576 1.2201 22.4053 1 22.4053C2.26055 37.0108 5.78208 51.9207 13.9056 64.0717C22.0291 76.2227 35.2549 85.4323 49.7212 86.0206L54.3432 85.3106L53.1627 84.2355C71.9308 72.2467 71.9509 31.696 66.1083 15.1228Z" fill="#46B249"/>
<path d="M54.3423 85.2903C39.876 84.702 26.6502 75.4924 18.5267 63.3414C10.4032 51.2107 6.90165 36.3008 5.62109 21.6953C18.5667 21.1881 30.2318 15.9748 39.896 7.21143C48.3597 13.0536 60.545 15.4271 70.7294 14.3925C76.9121 31.9394 76.5519 76.3241 54.3423 85.2903Z" fill="#B8DAAD"/>
<path d="M53.5636 80.7869C41.8385 79.9349 29.8933 72.3684 22.1899 60.8462C16.1273 51.8192 12.2056 40.0333 10.4648 25.7726C21.2495 24.4338 31.434 19.9912 40.3178 12.7087C47.521 16.7861 56.705 19.0987 66.029 19.0987C66.5492 19.0987 67.0695 19.0987 67.5697 19.0784C72.4118 37.4773 70.0908 72.977 53.5636 80.7869Z" fill="white"/>
<path d="M34.9352 27.1723L37.2562 38.6742L25.251 40.3782L27.7921 53.1581L39.157 50.6427L41.7181 62.8342L54.5437 60.542L52.0626 49.385L61.7468 47.9244L58.4054 35.1445L49.0013 36.6051L46.2201 25.6104L34.9352 27.1723Z" fill="#46B249"/>
<path d="M70.1091 32.2031C67.8081 34.1302 66.5276 37.031 66.6676 40.0941C66.8077 42.6501 67.9682 45.1452 69.849 46.8492C73.5306 50.1963 80.9539 51.0686 85.0156 47.9649C87.9969 45.6929 89.0174 40.865 88.297 37.2947C87.7968 34.8605 86.2562 32.7305 84.1552 31.4525C80.9939 29.5254 76.772 28.9777 73.3105 30.2963C72.17 30.7628 71.0695 31.412 70.1091 32.2031Z" fill="#DF5426"/>
<path d="M79.1138 25.7524L76.2125 25.8742C76.7727 27.2333 76.4926 28.917 75.4922 29.9921C76.7327 30.4992 78.1533 30.6412 79.4539 30.2964C78.5935 28.9778 78.4735 27.1927 79.1138 25.7524Z" fill="#DF5426"/>
<path d="M74.6519 25.3468C74.4118 26.7262 80.9747 26.787 80.8746 25.5293C80.7546 23.8254 74.9921 23.3588 74.6519 25.3468Z" fill="#DF5426"/>
<path d="M89.1982 32.0209L87.2573 29.8503C86.5971 31.1689 85.1364 32.0209 83.6758 31.9195C84.096 33.1975 84.8963 34.3943 85.9768 35.2057C86.437 33.6843 87.6975 32.4672 89.1982 32.0209Z" fill="#DF5426"/>
<path d="M86.6366 28.3085C85.4361 28.9982 89.5979 34.1507 90.4983 33.2582C91.7188 32.0613 88.3773 27.2942 86.6366 28.3085Z" fill="#DF5426"/>
<path d="M90.9588 43.9087L91.359 40.9876C89.9384 41.3122 88.3577 40.7239 87.4973 39.5474C86.797 40.7036 86.4168 42.1033 86.4969 43.4422C87.9175 42.8133 89.6582 43.0162 90.9588 43.9087Z" fill="#DF5426"/>
<path d="M92.1191 39.5063C90.8186 39.0195 89.618 45.5717 90.8586 45.6934C92.5393 45.8759 94 40.2163 92.1191 39.5063Z" fill="#DF5426"/>
<path d="M83.0943 52.8741L85.5554 51.3121C84.3949 50.4195 83.8147 48.817 84.1548 47.3767C82.8342 47.5796 81.5337 48.1678 80.5732 49.101C81.9538 49.8313 82.9343 51.3121 83.0943 52.8741Z" fill="#DF5426"/>
<path d="M87.156 50.967C86.6958 49.6484 80.9733 52.9144 81.6736 53.9692C82.614 55.3892 87.8363 52.8738 87.156 50.967Z" fill="#DF5426"/>
<path d="M71.4102 51.941L74.1714 52.8336C74.0913 51.3527 74.9517 49.8922 76.2523 49.2228C75.2518 48.3099 73.9713 47.7013 72.6307 47.5391C72.9908 49.0808 72.4906 50.7847 71.4102 51.941Z" fill="#DF5426"/>
<path d="M75.4717 53.8683C76.172 52.6512 70.0294 50.298 69.6892 51.5355C69.209 53.1786 74.4513 55.6128 75.4717 53.8683Z" fill="#DF5426"/>
<path d="M63.9072 43.137L65.0077 45.8553C66.0682 44.8613 67.7289 44.557 69.0695 45.1453C69.1095 43.7862 68.7493 42.3865 68.009 41.2505C67.0686 42.5488 65.4679 43.2587 63.9072 43.137Z" fill="#DF5426"/>
<path d="M65.0474 47.5391C66.408 47.2956 64.2471 41.0274 63.1066 41.5345C61.5459 42.2243 63.0866 47.8839 65.0474 47.5391Z" fill="#DF5426"/>
<path d="M66.2873 31.3716L64.9268 33.9681C66.3674 34.1507 67.6479 35.2664 68.0681 36.6661C69.1286 35.8344 69.9489 34.6578 70.3291 33.3596C68.7884 33.461 67.2077 32.6699 66.2873 31.3716Z" fill="#DF5426"/>
<path d="M63.7061 35.104C64.7666 36.0169 68.1081 30.2964 66.9876 29.7284C65.4669 28.9575 62.1855 33.7855 63.7061 35.104Z" fill="#DF5426"/>
<path d="M69.8497 36.2198C69.6497 36.7067 69.5696 37.2544 69.7297 37.7412C69.9298 38.3701 70.53 38.8366 71.1703 38.9584C71.8106 39.0801 72.4909 38.9178 73.0711 38.5932C73.6514 38.2687 74.1716 37.7412 74.4317 37.1327C74.7118 36.5038 74.7319 35.7533 74.4317 35.1447C74.1316 34.4956 73.3713 33.9478 72.651 34.0493C71.8706 34.1507 71.1303 34.5564 70.5901 35.1244C70.2699 35.4287 70.0298 35.8141 69.8497 36.2198Z" fill="#F7A088"/>
<path d="M71.1303 41.4937C70.9902 41.8588 70.9102 42.2848 71.0302 42.65C71.1903 43.1368 71.6305 43.4817 72.1307 43.5831C72.6309 43.6845 73.1512 43.5628 73.5914 43.2991C74.0315 43.0354 74.4317 42.65 74.6318 42.1834C74.8319 41.6966 74.8519 41.1286 74.6318 40.662C74.3917 40.1752 73.8315 39.7492 73.2712 39.81C72.671 39.8912 72.1107 40.1954 71.6905 40.6214C71.4504 40.8851 71.2503 41.1691 71.1303 41.4937Z" fill="#F7A088"/>
<path d="M74.752 37.883C74.652 38.1264 74.612 38.3901 74.692 38.6336C74.792 38.9581 75.0922 39.1813 75.4123 39.2421C75.7324 39.303 76.0726 39.2218 76.3527 39.0596C76.6528 38.8973 76.8929 38.6336 77.033 38.3293C77.1731 38.025 77.1731 37.6396 77.033 37.3353C76.8729 37.0107 76.5128 36.7267 76.1326 36.7876C75.7524 36.8484 75.3723 37.031 75.1122 37.315C74.9521 37.4773 74.832 37.6801 74.752 37.883Z" fill="#F7A088"/>
<path d="M69.3499 40.0944C69.2899 40.2364 69.2699 40.3986 69.3099 40.5406C69.3699 40.7232 69.55 40.8652 69.7501 40.9058C69.9502 40.9464 70.1502 40.8855 70.3103 40.8044C70.4904 40.7029 70.6305 40.5609 70.7105 40.3581C70.7905 40.1755 70.7905 39.9524 70.7105 39.7698C70.6105 39.5669 70.3904 39.4047 70.1703 39.4452C69.9302 39.4858 69.7101 39.5872 69.55 39.7698C69.4699 39.8509 69.3899 39.9726 69.3499 40.0944Z" fill="#F7A088"/>
<path d="M75.3118 35.1244C75.2518 35.2664 75.2318 35.4287 75.2718 35.5707C75.3318 35.7532 75.5119 35.8952 75.712 35.9358C75.9121 35.9764 76.1122 35.9155 76.2722 35.8344C76.4523 35.733 76.5924 35.591 76.6724 35.3881C76.7524 35.2055 76.7524 34.9824 76.6724 34.7998C76.5724 34.597 76.3523 34.4347 76.1322 34.4753C75.8921 34.5158 75.672 34.6173 75.5119 34.7998C75.4319 34.881 75.3718 35.0027 75.3118 35.1244Z" fill="#F7A088"/>
<path d="M51.3029 64.0714C49.142 64.8423 47.4813 66.5868 46.801 68.8182C46.2407 70.6845 46.4408 72.7942 47.3412 74.5184C49.122 77.9061 54.2242 80.4824 57.9458 79.3261C60.667 78.4741 62.6479 75.2893 63.048 72.5305C63.3081 70.6642 62.7479 68.7168 61.5874 67.2562C59.8066 65.0248 56.9254 63.5237 54.0841 63.5643C53.1637 63.5846 52.2033 63.7468 51.3029 64.0714Z" fill="#DF5426"/>
<path d="M59.4262 61.8201L57.3053 61.1304C57.3653 62.2461 56.725 63.3821 55.7246 63.8892C56.4849 64.5789 57.4654 65.0455 58.4858 65.1672C58.2257 63.9906 58.6059 62.6924 59.4262 61.8201Z" fill="#DF5426"/>
<path d="M56.3255 60.3595C55.8052 61.2927 60.4873 63.0778 60.7474 62.1447C61.1076 60.8667 57.0858 59.0207 56.3255 60.3595Z" fill="#DF5426"/>
<path d="M65.0678 69.0012L64.2274 66.9321C63.4071 67.703 62.1465 67.9261 61.1261 67.4798C61.1061 68.5144 61.3662 69.5895 61.9464 70.4415C62.6467 69.4475 63.8673 68.9201 65.0678 69.0012Z" fill="#DF5426"/>
<path d="M64.1872 65.6339C63.1467 65.8165 64.8075 70.6039 65.6879 70.2184C66.8684 69.691 65.6879 65.3702 64.1872 65.6339Z" fill="#DF5426"/>
<path d="M63.2674 77.9878L64.2878 75.9998C63.1873 75.8578 62.2069 75.0261 61.8868 73.9307C61.0864 74.5798 60.4461 75.4724 60.166 76.4664C61.3665 76.4055 62.5671 77.0141 63.2674 77.9878Z" fill="#DF5426"/>
<path d="M65.2272 75.1477C64.4269 74.458 61.8658 78.8397 62.7262 79.2656C63.9067 79.8336 66.4078 76.1417 65.2272 75.1477Z" fill="#DF5426"/>
<path d="M55.3023 82.349L57.4632 81.8622C56.863 80.9087 56.863 79.6105 57.4832 78.6773C56.4828 78.4745 55.4023 78.5556 54.4619 78.9816C55.2823 79.8539 55.6024 81.1927 55.3023 82.349Z" fill="#DF5426"/>
<path d="M58.7243 82.065C58.7243 80.9899 53.7822 81.8216 54.0023 82.7547C54.3224 84.0327 58.7243 83.6067 58.7243 82.065Z" fill="#DF5426"/>
<path d="M47.1592 78.596L48.9199 79.9755C49.2401 78.9003 50.2405 78.0686 51.341 77.9266C50.8608 77.0138 50.1005 76.2226 49.1801 75.7764C49.04 76.9529 48.2396 78.0483 47.1592 78.596Z" fill="#DF5426"/>
<path d="M49.5802 81.0507C50.4005 80.361 46.5789 77.0544 46.0186 77.8456C45.2583 78.9004 48.3997 82.0447 49.5802 81.0507Z" fill="#DF5426"/>
<path d="M44.0381 70.2791L44.1181 72.5308C45.1386 72.0845 46.4191 72.3279 47.2195 73.0987C47.5996 72.1453 47.6997 71.0296 47.4596 70.0356C46.4591 70.6848 45.1186 70.7862 44.0381 70.2791Z" fill="#DF5426"/>
<path d="M43.7384 73.7479C44.7788 73.9305 44.8388 68.8591 43.8784 68.92C42.5778 69.0011 42.2177 73.4639 43.7384 73.7479Z" fill="#DF5426"/>
<path d="M48.7804 62.4692L47.1396 63.9704C48.1201 64.4775 48.7604 65.6135 48.7003 66.7495C49.6808 66.4249 50.5812 65.7961 51.1814 64.9644C50.0209 64.6195 49.1005 63.6458 48.7804 62.4692Z" fill="#DF5426"/>
<path d="M45.9591 64.4571C46.4794 65.3903 50.3611 62.1649 49.7008 61.4752C48.8004 60.5218 45.1988 63.1183 45.9591 64.4571Z" fill="#DF5426"/>
<path d="M50.0817 66.8912C49.8216 67.1752 49.6215 67.5606 49.6015 67.946C49.5815 68.4532 49.9016 68.94 50.3218 69.2037C50.762 69.4674 51.2822 69.5283 51.7824 69.4471C52.2826 69.366 52.7829 69.1226 53.143 68.7574C53.5032 68.372 53.7033 67.8446 53.6632 67.3374C53.6032 66.7897 53.223 66.2015 52.6628 66.0797C52.0825 65.958 51.4423 66.0392 50.902 66.3029C50.6019 66.4246 50.3218 66.6477 50.0817 66.8912Z" fill="#F7A088"/>
<path d="M49.6416 71.0095C49.4415 71.2326 49.2814 71.5166 49.2814 71.8209C49.2614 72.2063 49.5015 72.5917 49.8417 72.7946C50.1618 72.9974 50.582 73.038 50.9622 72.9771C51.3423 72.9163 51.7225 72.7337 52.0026 72.4497C52.2827 72.1657 52.4228 71.76 52.4028 71.3543C52.3628 70.9283 52.0626 70.482 51.6425 70.3806C51.2023 70.2792 50.7221 70.3603 50.3019 70.5429C50.0218 70.6646 49.8217 70.8269 49.6416 71.0095Z" fill="#F7A088"/>
<path d="M53.1825 69.3663C53.0424 69.5083 52.9424 69.6909 52.9424 69.8937C52.9424 70.1574 53.0824 70.4008 53.3025 70.5226C53.5226 70.6443 53.7827 70.6848 54.0229 70.6443C54.283 70.6037 54.5231 70.482 54.7031 70.2994C54.8832 70.1168 54.9833 69.8531 54.9633 69.5894C54.9433 69.3257 54.7432 69.0214 54.463 68.9606C54.1629 68.8997 53.8628 68.9403 53.5827 69.062C53.4226 69.1431 53.2825 69.2446 53.1825 69.3663Z" fill="#F7A088"/>
<path d="M48.7201 69.5286C48.6401 69.6097 48.5801 69.7314 48.5801 69.8532C48.5801 69.9952 48.6601 70.1574 48.8002 70.2386C48.9202 70.3197 49.0803 70.34 49.2404 70.3197C49.4004 70.2994 49.5405 70.2183 49.6405 70.1169C49.7406 69.9952 49.8006 69.8532 49.8006 69.6909C49.7806 69.5286 49.6605 69.346 49.5005 69.3054C49.3204 69.2649 49.1403 69.2852 48.9802 69.3663C48.8802 69.4069 48.8002 69.4677 48.7201 69.5286Z" fill="#F7A088"/>
<path d="M54.3031 67.5408C54.2231 67.6219 54.1631 67.7436 54.1631 67.8654C54.1631 68.0074 54.2431 68.1696 54.3832 68.2508C54.5032 68.3319 54.6633 68.3522 54.8234 68.3319C54.9834 68.3116 55.1235 68.2305 55.2235 68.1291C55.3236 68.0074 55.3836 67.8654 55.3836 67.7031C55.3636 67.5408 55.2436 67.3582 55.0835 67.3176C54.9034 67.2771 54.7233 67.2974 54.5633 67.3785C54.4432 67.3988 54.3632 67.4596 54.3031 67.5408Z" fill="#F7A088"/>
<path d="M54.1439 15.3056C53.0034 16.5227 52.5032 18.2267 52.7833 19.8901C53.0234 21.2898 53.8437 22.5881 55.0042 23.3995C57.2652 24.9818 61.407 24.9412 63.4479 22.933C64.9286 21.4724 65.1687 18.7339 64.5284 16.827C64.0882 15.5287 63.0878 14.4536 61.8472 13.9059C59.9664 13.0742 57.6054 13.0539 55.7846 14.0479C55.1843 14.3522 54.6241 14.7985 54.1439 15.3056Z" fill="#DF5426"/>
<path d="M58.6656 11.1064L57.0849 11.3702C57.4851 12.0801 57.4451 13.0336 56.9648 13.6827C57.6852 13.8653 58.4855 13.845 59.1658 13.5813C58.6056 12.9321 58.4055 11.9584 58.6656 11.1064Z" fill="#DF5426"/>
<path d="M56.1644 11.2078C56.1244 11.9787 59.746 11.5527 59.6059 10.863C59.4458 9.92986 56.2244 10.0719 56.1644 11.2078Z" fill="#DF5426"/>
<path d="M64.6688 13.8652L63.4282 12.79C63.1481 13.5609 62.4078 14.1289 61.6074 14.1897C61.9276 14.8794 62.4478 15.4677 63.1081 15.8329C63.2481 14.9606 63.8684 14.21 64.6688 13.8652Z" fill="#DF5426"/>
<path d="M62.9887 11.9786C62.3685 12.4655 65.0296 15.0012 65.4698 14.4534C66.0501 13.7029 63.8691 11.3092 62.9887 11.9786Z" fill="#DF5426"/>
<path d="M66.4294 20.2755L66.4494 18.6324C65.6891 18.9164 64.7687 18.6933 64.2085 18.105C63.9083 18.7947 63.7883 19.5858 63.9283 20.3161C64.6887 19.8901 65.6691 19.8901 66.4294 20.2755Z" fill="#DF5426"/>
<path d="M66.7691 17.7802C66.0288 17.5977 65.8087 21.2896 66.489 21.2896C67.4494 21.2693 67.8696 18.0237 66.7691 17.7802Z" fill="#DF5426"/>
<path d="M62.7271 25.7931L63.9677 24.7586C63.2674 24.3529 62.8472 23.5009 62.9272 22.6895C62.2069 22.8923 61.5266 23.3183 61.0664 23.9066C61.8868 24.1906 62.527 24.9411 62.7271 25.7931Z" fill="#DF5426"/>
<path d="M64.828 24.4543C64.4878 23.7646 61.5466 25.9554 62.0068 26.4829C62.627 27.2131 65.3482 25.4483 64.828 24.4543Z" fill="#DF5426"/>
<path d="M56.2041 26.0973L57.7848 26.4016C57.6447 25.5901 58.0049 24.7179 58.6852 24.2716C58.0649 23.8456 57.3246 23.5819 56.5843 23.6022C56.8844 24.4136 56.7243 25.3873 56.2041 26.0973Z" fill="#DF5426"/>
<path d="M58.5858 26.8682C58.886 26.1582 55.3444 25.2859 55.2244 25.9757C55.0843 26.9291 58.1457 27.9028 58.5858 26.8682Z" fill="#DF5426"/>
<path d="M51.4814 21.7766L52.2618 23.1966C52.782 22.5677 53.6824 22.2837 54.4627 22.5271C54.3827 21.7766 54.1026 21.026 53.6224 20.458C53.1822 21.2289 52.3418 21.7157 51.4814 21.7766Z" fill="#DF5426"/>
<path d="M52.4019 24.1092C53.1422 23.886 51.5215 20.5795 50.9212 20.9446C50.1209 21.4315 51.3414 24.4337 52.4019 24.1092Z" fill="#DF5426"/>
<path d="M51.9821 15.1226L51.4219 16.644C52.2222 16.644 53.0226 17.1714 53.3427 17.922C53.8629 17.3945 54.2431 16.6845 54.3631 15.934C53.5028 16.0963 52.5824 15.7514 51.9821 15.1226Z" fill="#DF5426"/>
<path d="M50.8218 17.3543C51.4621 17.7803 52.9227 14.3926 52.2624 14.1695C51.362 13.8449 49.8814 16.7254 50.8218 17.3543Z" fill="#DF5426"/>
<path d="M54.2833 17.537C54.2033 17.8209 54.2033 18.1252 54.3233 18.3889C54.4834 18.7338 54.8436 18.9367 55.2037 18.9569C55.5639 18.9772 55.924 18.8352 56.2242 18.6121C56.5243 18.3889 56.7644 18.0644 56.8644 17.6992C56.9645 17.3341 56.9245 16.9284 56.7244 16.6038C56.5043 16.259 56.0641 16.0155 55.6639 16.117C55.2437 16.2387 54.8636 16.5024 54.6035 16.8472C54.4634 17.0704 54.3433 17.2935 54.2833 17.537Z" fill="#F7A088"/>
<path d="M55.3445 20.3564C55.2845 20.5593 55.2845 20.8027 55.3646 21.0056C55.4846 21.2693 55.7647 21.4315 56.0449 21.4518C56.325 21.4721 56.6051 21.3707 56.8252 21.1881C57.0653 21.0056 57.2454 20.7824 57.3254 20.4984C57.4054 20.2144 57.3854 19.9101 57.2254 19.6667C57.0453 19.403 56.7051 19.2001 56.405 19.2813C56.0849 19.3624 55.7847 19.5856 55.5847 19.8493C55.4846 19.9913 55.3846 20.1738 55.3445 20.3564Z" fill="#F7A088"/>
<path d="M57.0845 18.1048C57.0445 18.2468 57.0445 18.3888 57.1045 18.5308C57.1846 18.6931 57.3647 18.7945 57.5447 18.8148C57.7248 18.8351 57.9049 18.7539 58.065 18.6525C58.225 18.5308 58.3451 18.3888 58.3851 18.2062C58.4251 18.0237 58.4251 17.8208 58.3251 17.6585C58.225 17.4962 57.9849 17.3745 57.8048 17.4151C57.6048 17.4759 57.4047 17.5977 57.2646 17.7802C57.1846 17.8817 57.1245 17.9831 57.0845 18.1048Z" fill="#F7A088"/>
<path d="M54.2641 19.7074C54.2441 19.7886 54.2441 19.89 54.2841 19.9508C54.3241 20.0523 54.4442 20.1131 54.5442 20.1131C54.6443 20.1131 54.7643 20.0726 54.8444 20.0117C54.9244 19.9508 55.0044 19.8494 55.0445 19.748C55.0845 19.6466 55.0645 19.5248 55.0044 19.4234C54.9444 19.322 54.8044 19.2409 54.6843 19.2814C54.5642 19.322 54.4442 19.4031 54.3642 19.5046C54.3241 19.5654 54.2841 19.6263 54.2641 19.7074Z" fill="#F7A088"/>
<path d="M57.2045 16.5426C57.1845 16.6238 57.1845 16.7252 57.2246 16.786C57.2646 16.8875 57.3846 16.9483 57.4847 16.9483C57.5847 16.9483 57.7048 16.9078 57.7848 16.8469C57.8648 16.786 57.9449 16.6846 57.9849 16.5832C58.0249 16.4818 58.0049 16.3601 57.9449 16.2586C57.8848 16.1572 57.7448 16.0761 57.6247 16.1166C57.5047 16.1572 57.3846 16.2383 57.3046 16.3398C57.2646 16.4006 57.2246 16.4818 57.2045 16.5426Z" fill="#F7A088"/>
</svg>
