<svg width="105" height="109" viewBox="0 0 105 109" fill="none" xmlns="http://www.w3.org/2000/svg">
<path d="M12.7888 40.0134C3.13589 54.6073 0.385196 73.582 5.50454 90.3154C7.82225 97.9307 12.5086 105.75 20.2004 107.838C25.6253 109.29 31.3559 107.558 36.5517 105.419C41.7474 103.279 46.9177 100.681 52.521 100.325C64.4661 99.5607 76.0292 109.112 87.5668 105.877C92.8644 104.374 97.1433 100.274 99.7921 95.4602C102.441 90.6465 103.587 85.1451 104.198 79.6692C105.879 64.2347 103.078 47.9343 94.2143 35.1996C86.7773 24.5025 75.1887 17.1928 62.2757 15.4354C56.0612 14.5949 51.6041 13.9073 45.415 15.8175C39.2514 17.7022 33.3935 20.6057 28.0959 24.3242C22.0851 28.5267 16.8384 33.8498 12.7888 40.0134Z" fill="#F2FFEC"/>
<path d="M82.6013 64.2347C86.5491 48.1636 84.0021 29.2398 75.8519 14.0346C72.1334 7.13241 66.5301 0.484909 59.9845 0.0264604C55.3745 -0.304641 51.2995 2.52246 47.7592 5.65519C44.219 8.76245 40.8061 12.3282 36.5017 13.8054C27.3328 16.9381 15.897 10.0105 7.67042 15.4609C3.90096 17.9569 1.55777 22.7961 0.666347 27.9918C-0.225081 33.1876 0.233368 38.7399 1.1248 44.1649C3.62079 59.4465 9.86079 74.6772 19.9721 85.247C28.4534 94.1103 39.3543 98.8731 49.8986 97.9816C54.9925 97.5487 58.6346 97.3194 63.0154 94.2376C67.3961 91.1813 71.2674 87.1826 74.4766 82.5472C78.1187 77.2241 80.9203 71.0096 82.6013 64.2347Z" fill="#F2FFEC"/>
<path d="M52.973 99.4357L62.6243 93.2154L74.2237 95.3626L64.7937 46.1318L43.543 50.2049L52.973 99.4357Z" fill="#46B249"/>
<path d="M53.3494 74.156C53.2387 74.6651 52.2647 95.6059 52.2647 95.6059L49.8076 83.0105L53.3494 74.156Z" fill="#DBAE4E"/>
<path d="M48.8347 99.4357L39.1833 93.2154L27.584 95.3626L37.014 46.1318L58.2647 50.2049L48.8347 99.4357Z" fill="#46B249"/>
<path d="M69.133 68.7992L64.7943 46.1318L50.8928 48.7882L37.0135 46.1318L32.6748 68.7992C37.8104 72.496 44.1192 74.6653 50.915 74.6653C57.7108 74.6653 63.9974 72.496 69.133 68.7992Z" fill="#DBAE4E"/>
<path d="M50.9141 11.998C34.489 11.998 21.1631 25.324 21.1631 41.749C21.1631 58.174 34.4669 71.5 50.9141 71.5C67.3391 71.5 80.665 58.174 80.665 41.749C80.665 25.324 67.3391 11.998 50.9141 11.998Z" fill="white"/>
<path d="M50.9151 73.0938C33.6268 73.0938 19.5703 59.0374 19.5703 41.7491C19.5703 24.4607 33.6268 10.4043 50.9151 10.4043C68.2034 10.4043 82.2598 24.4607 82.2598 41.7491C82.2377 59.0374 68.1813 73.0938 50.9151 73.0938ZM50.9151 13.5698C35.3755 13.5698 22.7579 26.2095 22.7579 41.7269C22.7579 57.2665 35.3976 69.8841 50.9151 69.8841C66.4546 69.8841 79.0722 57.2444 79.0722 41.7269C79.0722 26.2095 66.4325 13.5698 50.9151 13.5698Z" fill="#46B249"/>
<path d="M50.915 21.561C39.7806 21.561 30.749 30.5926 30.749 41.7271C30.749 52.8615 39.7806 61.8931 50.915 61.8931C62.0495 61.8931 71.0811 52.8615 71.0811 41.7271C71.0811 30.5926 62.0495 21.561 50.915 21.561Z" fill="#DF5426"/>
<path d="M27.5167 54.2339C25.4802 50.4043 24.3955 46.0878 24.3955 41.7491C24.3955 27.1392 36.2826 15.23 50.9146 15.23C65.5244 15.23 77.4116 27.1171 77.4116 41.7491C77.4116 45.9992 76.4154 50.0944 74.4674 53.8575L71.634 52.3966C73.3385 49.0761 74.224 45.4901 74.224 41.7269C74.224 28.8658 63.7536 18.3954 50.8925 18.3954C38.0314 18.3954 27.561 28.8658 27.561 41.7269C27.561 45.5565 28.5128 49.3639 30.3059 52.7286L27.5167 54.2339Z" fill="#DF5426"/>
<path d="M63.4877 40.598C62.5801 39.9561 61.6061 40.4652 60.8756 41.3285C60.4772 41.7934 57.5331 45.2245 56.8911 44.8703C56.6698 44.7596 56.6033 44.2505 56.6919 43.2544L58.1307 32.3191C58.2414 31.5665 57.688 30.8581 56.9354 30.7696C56.1828 30.6589 55.4744 31.2123 55.3859 31.9649C55.3859 31.9649 54.3233 39.9782 54.2569 40.4209C54.1905 40.8637 53.947 41.2178 53.5486 41.1957C53.0616 41.1736 52.9509 40.7309 52.9509 40.2439C52.9509 39.7569 53.2165 28.0247 53.2165 28.0247C53.2386 27.2499 52.6188 26.6301 51.8662 26.608C51.0914 26.5859 50.4716 27.2057 50.4495 27.9583C50.4495 27.9583 50.206 39.6019 50.1839 40.0668C50.1617 40.5095 49.8518 40.9744 49.4534 40.9301C48.9664 40.8637 48.9 40.5095 48.8557 39.9782C48.8114 39.447 48.3244 30.2383 48.3244 30.2383C48.2802 29.4636 47.6382 28.888 46.8634 28.9323C46.0887 28.9766 45.5131 29.6185 45.5574 30.3933C45.5574 30.3933 46.0665 39.8233 46.0887 40.2881C46.1108 40.753 45.9116 41.1514 45.4467 41.1957C44.9597 41.24 44.8269 40.8194 44.7605 40.2881C44.6941 39.7347 44.7605 40.3103 44.7605 40.3103L43.7644 33.603C43.6537 32.9168 43.0118 32.4298 42.3255 32.5405C41.6393 32.6512 41.1523 33.2931 41.2409 33.9793C41.2409 33.9793 42.8125 44.4497 43.2995 48.1465C43.8087 52.0867 45.8673 54.3003 50.4495 54.3003C56.3156 54.3003 61.4954 46.7519 63.377 43.2101C64.0854 41.8819 64.0854 41.0186 63.4877 40.598Z" fill="white"/>
<path d="M51.6661 43.8303H49.4082V50.6704H51.6661V43.8303Z" fill="#46B249"/>
<path d="M47.1211 46.1327V48.3906H53.9612V46.1327H47.1211Z" fill="#46B249"/>
</svg>
