<svg width="90" height="75" viewBox="0 0 90 75" fill="none" xmlns="http://www.w3.org/2000/svg">
<g clip-path="url(#clip0_35_1140)">
<path d="M24.1108 10.8466C29.5287 6.40921 35.2445 1.83905 42.0773 0.511613C53.3785 -1.65021 68.3103 3.29922 78.6992 7.58494C85.7368 10.4863 91.9739 18.6406 89.386 26.6621C88.362 29.81 86.165 32.389 84.5825 35.2904C82.4042 39.2347 81.436 43.6911 80.8775 48.1475C80.3934 52.054 80.952 55.9794 78.8295 59.4117C76.8374 62.6355 73.5606 64.968 70.2465 66.5799C56.134 73.5774 39.4336 76.5356 24.2039 71.5672C11.3947 67.3953 4.54319 58.0843 1.676 45.0755C-0.129957 36.9212 -1.06086 28.1222 2.0856 20.4042C3.07236 17.9768 4.48734 15.6823 6.44224 13.9566C12.0835 8.98822 20.5362 9.95535 27.8903 11.188" fill="#F2FFEC"/>
<path fill-rule="evenodd" clip-rule="evenodd" d="M67.6027 54.5575V75.0189L43.5295 62.7496L19.4004 75.0189V9.55748C19.4004 5.0442 22.9937 1.38428 27.4248 1.38428H59.5783C64.0094 1.38428 67.6027 5.0442 67.6027 9.55748V17.7307" fill="#46B249"/>
<path fill-rule="evenodd" clip-rule="evenodd" d="M67.6026 54.5575C57.6233 54.5575 49.5244 46.3085 49.5244 36.1441C49.5244 26.1884 57.8467 17.7307 67.6026 17.7307C77.5819 17.7307 85.6622 25.9798 85.6622 36.1441C85.6808 46.3085 77.6005 54.5575 67.6026 54.5575Z" fill="#DF5426"/>
<path d="M66.0202 43.5018C65.443 43.5018 64.9031 43.2742 64.4935 42.857L59.6528 37.9076C58.815 37.0543 58.815 35.6699 59.6528 34.8166C60.4906 33.9632 61.8497 33.9632 62.6875 34.8166L66.0202 38.211L72.5737 31.517C73.4116 30.6636 74.7707 30.6636 75.6085 31.517C76.4463 32.3703 76.4463 33.7546 75.6085 34.608L67.5282 42.857C67.1373 43.2742 66.5973 43.5018 66.0202 43.5018Z" fill="white"/>
</g>
<defs>
<clipPath id="clip0_35_1140">
<rect width="90" height="75" fill="white"/>
</clipPath>
</defs>
</svg>
