<svg width="127" height="91" viewBox="0 0 127 91" fill="none" xmlns="http://www.w3.org/2000/svg">
<g clip-path="url(#clip0_35_1075)">
<path d="M0.34444 39.4658C-3.28149 55.4307 22.1 93.6526 62.3548 88.2762C81.0849 85.764 81.1773 76.1616 96.7896 66.207C106.097 60.2671 118.614 56.7689 123.649 46.65C128.014 37.9163 127.991 27.7034 124.273 20.4018C115.935 3.96733 95.7503 -9.81415 70.2995 9.22636C44.8487 28.2669 9.67486 -1.66735 0.34444 39.4658Z" fill="#F2FFEC"/>
<path d="M87.4609 57.8495H77.6454C73.8347 57.8495 70.7169 54.7035 70.7169 50.8061V46.3453C66.9062 45.688 63.9731 42.3072 63.9962 38.2455C63.9962 37.5647 64.0886 36.8838 64.2503 36.2264C64.8969 33.5499 66.8369 31.4135 69.4005 30.5213C69.8393 30.3804 70.2781 30.263 70.7169 30.1926V25.7318C70.7169 23.8536 71.4329 22.0928 72.7493 20.7545C74.0657 19.4163 75.7978 18.6885 77.6454 18.6885H82.0335C82.6802 14.8146 85.9828 11.8564 89.9782 11.8564C90.648 11.8564 91.3177 11.9504 91.9644 12.1147C94.5972 12.7956 96.6758 14.7442 97.5765 17.3503C97.7151 17.7963 97.8306 18.2424 97.8998 18.6885H102.288C104.136 18.6885 105.868 19.4163 107.184 20.7545C108.5 22.0928 109.216 23.8536 109.216 25.7318V35.7099L106.283 35.0995C105.729 34.9821 105.129 35.029 104.597 35.2169C103.604 35.569 102.842 36.3908 102.588 37.4238C102.149 39.1611 103.189 40.922 104.875 41.3681C105.336 41.4854 105.821 41.5089 106.283 41.3915L109.216 40.8046V50.7827C109.216 54.6565 106.122 57.826 102.288 57.826H92.4725L93.073 54.8443C93.1884 54.2809 93.1423 53.6704 92.9575 53.107C92.6111 52.0974 91.8027 51.3226 90.7866 51.0644C89.0775 50.6183 87.3454 51.6748 86.9066 53.3887C86.8373 53.6469 86.8142 53.9052 86.8142 54.1869C86.8142 54.3982 86.8373 54.6095 86.8835 54.8208L87.4609 57.8495ZM75.6131 40.8281V50.8061C75.6131 51.9565 76.5369 52.8722 77.6454 52.8722H82.0335C82.0797 52.6374 82.1259 52.4261 82.1721 52.1913C83.2806 47.8245 87.6687 45.1715 91.9644 46.2984C94.5972 46.9558 96.6758 48.9279 97.5765 51.534C97.7151 51.98 97.8306 52.4261 97.8998 52.8722H102.288C103.42 52.8722 104.32 51.9331 104.32 50.8061V46.3453C104.089 46.2984 103.881 46.2514 103.651 46.2045C101.572 45.6645 99.8167 44.3263 98.7082 42.448C97.6227 40.5698 97.2994 38.3629 97.8306 36.2499C98.4772 33.5734 100.417 31.4604 102.981 30.5448C103.42 30.4039 103.858 30.2865 104.297 30.2161V25.7553C104.297 25.1918 104.089 24.6753 103.697 24.2997C103.304 23.9006 102.796 23.6893 102.265 23.6893H92.4494L93.0268 20.7076C93.1423 20.1206 93.0961 19.5337 92.9113 18.9702C92.5649 17.9607 91.7565 17.1859 90.7404 16.9277C90.4863 16.8572 90.2092 16.8337 89.9551 16.8337C88.1999 16.8337 86.7911 18.2659 86.7911 20.0502C86.7911 20.2615 86.8142 20.4728 86.8604 20.7076L87.4378 23.6893H77.6223C77.0681 23.6893 76.56 23.9006 76.1905 24.2997C75.7978 24.6988 75.59 25.2153 75.59 25.7553V35.7334L72.6569 35.1464C72.1026 35.029 71.5021 35.076 70.9479 35.2638C69.9548 35.616 69.1926 36.4377 68.9386 37.4707C68.8693 37.729 68.8462 38.0107 68.8462 38.269C68.8462 40.0533 70.255 41.4854 72.0102 41.4854C72.2181 41.4854 72.4259 41.462 72.6569 41.415L75.6131 40.8281Z" fill="white"/>
<path fill-rule="evenodd" clip-rule="evenodd" d="M31.3625 29.8406H38.2218C38.0139 30.8501 38.0832 31.9066 38.4066 32.8692C39.007 34.677 40.4851 36.0622 42.3096 36.5318C45.312 37.3065 48.3836 35.4752 49.1689 32.3997C49.2844 31.9301 49.3536 31.4605 49.3536 30.991C49.3536 30.6153 49.3074 30.2162 49.2382 29.8406H56.0974C58.5917 29.8406 60.6009 31.8831 60.6009 34.4187V41.3917C59.6079 41.1804 58.5686 41.2508 57.6217 41.5795C55.8434 42.1899 54.4807 43.6925 54.0188 45.5472C53.2567 48.5993 55.0581 51.7219 58.0836 52.5201C58.5455 52.6375 59.0074 52.708 59.4693 52.708C59.8388 52.708 60.2314 52.661 60.6009 52.5906V59.5635C60.6009 62.0991 58.5917 64.1416 56.0974 64.1416H49.2382C49.3074 64.5173 49.3536 64.8929 49.3536 65.2921C49.3536 68.4616 46.8363 71.0206 43.7184 71.0206C43.2565 71.0206 42.7946 70.9502 42.3327 70.8328C40.5082 70.3633 39.0301 69.0016 38.4297 67.1703C38.1063 66.1842 38.037 65.1512 38.2449 64.1416H31.3856C28.8914 64.1416 26.8821 62.0991 26.8821 59.5635V52.5906C26.5126 52.661 26.1431 52.708 25.7504 52.708C22.6326 52.708 20.1152 50.1489 20.1152 46.9794C20.1152 46.5098 20.1845 46.0403 20.3 45.5707C20.7619 43.716 22.1014 42.2134 23.9028 41.603C24.8728 41.2743 25.889 41.2038 26.8821 41.4151V34.4422C26.8821 31.8831 28.8914 29.8406 31.3625 29.8406Z" fill="#46B249"/>
<path d="M43.7178 73.4624C43.048 73.4624 42.3783 73.3685 41.7316 73.2042C39.0988 72.5233 36.9971 70.5747 36.1195 67.9452C35.9809 67.4991 35.8654 67.053 35.7962 66.6069H31.385C27.5512 66.6069 24.4565 63.4374 24.4565 59.5636V55.0793C20.5996 54.4219 17.6665 51.0411 17.6896 46.956C17.6896 46.2751 17.782 45.5943 17.9436 44.9369C18.5903 42.2604 20.5303 40.1239 23.0938 39.2318C23.5327 39.0909 23.9715 38.9735 24.4334 38.9031V34.4188C24.4334 30.5215 27.5512 27.3755 31.3619 27.3755H38.2211V29.6059L40.6692 29.8641V31.8832C40.6923 31.9537 40.7154 32.0241 40.7385 32.0945C41.0849 33.1041 41.8933 33.8788 42.9325 34.1371C44.6416 34.5832 46.3968 33.5267 46.8356 31.8128C46.9049 31.5545 46.928 31.2728 46.928 31.0146C46.928 30.8032 46.9049 30.592 46.8587 30.3572L46.2813 27.3755H56.1198C59.9536 27.3755 63.0484 30.545 63.0484 34.4188V44.4204L60.1153 43.81C59.561 43.6926 58.9605 43.7395 58.4063 43.9273C57.4132 44.2795 56.651 45.1012 56.397 46.1577C55.9582 47.8951 56.9975 49.6794 58.7065 50.1255C59.1684 50.2429 59.6534 50.2664 60.1384 50.149L63.0715 49.562V59.5636C63.0715 63.4609 59.9536 66.6069 56.1429 66.6069H51.7318C51.062 70.5042 47.7132 73.4624 43.7178 73.4624ZM40.6692 66.1374C40.6923 66.2078 40.7154 66.2782 40.7385 66.3487C41.0849 67.3582 41.8933 68.133 42.9325 68.3912C43.2097 68.4617 43.4637 68.4617 43.7409 68.4851C45.4961 68.4851 46.928 67.0295 46.928 65.2452C46.928 65.0339 46.9049 64.7991 46.8587 64.5878L46.2813 61.6061H56.1198C57.2515 61.6061 58.1753 60.667 58.1753 59.5166V55.0324C57.9444 54.9854 57.7365 54.9384 57.5056 54.8915C53.1868 53.7646 50.577 49.2803 51.6856 44.9134C52.3553 42.2369 54.2722 40.1005 56.8589 39.2083C57.2977 39.0674 57.7365 38.9501 58.1984 38.8796V34.3954C58.1984 33.2449 57.2746 32.3058 56.1429 32.3058H51.7318C51.6856 32.5406 51.6394 32.7754 51.5932 32.9867C50.4846 37.377 46.0735 40.03 41.7778 38.9031C39.1449 38.2457 37.0433 36.2736 36.1657 33.6441C36.0271 33.198 35.9116 32.7519 35.8423 32.3058H31.4312C30.2995 32.3058 29.3757 33.2449 29.3757 34.3954V44.3969L26.4426 43.7865C25.8653 43.6691 25.2879 43.7161 24.7336 43.9039C23.7405 44.256 22.9784 45.0778 22.7243 46.1343C22.655 46.416 22.6319 46.6743 22.6319 46.956C22.6319 48.7403 24.0638 50.1959 25.8191 50.1959C26.0269 50.1959 26.2579 50.1724 26.4657 50.1255L29.3988 49.5385V59.5401C29.3988 60.6905 30.3226 61.6296 31.4543 61.6296H38.3135V63.86L40.7616 64.1183V66.1374H40.6692Z" fill="white"/>
<path fill-rule="evenodd" clip-rule="evenodd" d="M31.3625 29.8406H38.2218C38.0139 30.8501 38.0832 31.9066 38.4066 32.8692C39.007 34.677 40.4851 36.0622 42.3096 36.5318C45.312 37.3065 48.3836 35.4752 49.1689 32.3997C49.2844 31.9301 49.3536 31.4605 49.3536 30.991C49.3536 30.6153 49.3074 30.2162 49.2382 29.8406H56.0974C58.5917 29.8406 60.6009 31.8831 60.6009 34.4187V41.3917C59.6079 41.1804 58.5686 41.2508 57.6217 41.5795C55.8434 42.1899 54.4807 43.6925 54.0188 45.5472C53.2567 48.5993 55.0581 51.7219 58.0836 52.5201C58.5455 52.6375 59.0074 52.708 59.4693 52.708C59.8388 52.708 60.2314 52.661 60.6009 52.5906V59.5635C60.6009 62.0991 58.5917 64.1416 56.0974 64.1416H49.2382C49.3074 64.5173 49.3536 64.8929 49.3536 65.2921C49.3536 68.4616 46.8363 71.0206 43.7184 71.0206C43.2565 71.0206 42.7946 70.9502 42.3327 70.8328C40.5082 70.3633 39.0301 69.0016 38.4297 67.1703C38.1063 66.1842 38.037 65.1512 38.2449 64.1416H31.3856C28.8914 64.1416 26.8821 62.0991 26.8821 59.5635V52.5906C26.5126 52.661 26.1431 52.708 25.7504 52.708C22.6326 52.708 20.1152 50.1489 20.1152 46.9794C20.1152 46.5098 20.1845 46.0403 20.3 45.5707C20.7619 43.716 22.1014 42.2134 23.9028 41.603C24.8728 41.2743 25.889 41.2038 26.8821 41.4151V34.4422C26.8821 31.8831 28.8914 29.8406 31.3625 29.8406Z" fill="#46B249"/>
<path fill-rule="evenodd" clip-rule="evenodd" d="M106.791 25.7554V32.7048C105.798 32.4935 104.782 32.564 103.812 32.8926C102.034 33.5031 100.694 35.0056 100.232 36.8604C99.47 39.9125 101.271 43.0116 104.274 43.8098C104.736 43.9272 105.198 43.9977 105.659 43.9977C106.029 43.9977 106.422 43.9507 106.791 43.8803V50.8297C106.791 53.3418 104.782 55.3844 102.311 55.3844H95.4745C95.6824 54.3748 95.6131 53.3418 95.2898 52.3558C94.6893 50.548 93.2112 49.1862 91.3867 48.7167C88.3843 47.9419 85.3358 49.7732 84.5506 52.8253C84.4351 53.2949 84.3658 53.7644 84.3658 54.234C84.3658 54.6096 84.412 55.0087 84.4813 55.3844H77.6451C75.1739 55.3844 73.1647 53.3418 73.1647 50.8297V43.8803C72.7951 43.9507 72.4256 43.9977 72.033 43.9977C68.9383 43.9977 66.4209 41.4386 66.4209 38.2925C66.4209 37.823 66.4902 37.3534 66.6057 36.8839C67.0676 35.0291 68.4071 33.55 70.1854 32.9161C71.1323 32.5874 72.1716 32.517 73.1647 32.7283V25.7789C73.1647 23.2667 75.1739 21.2242 77.6451 21.2242H84.4813C84.412 20.8485 84.3658 20.4729 84.3658 20.0738C84.3658 16.9277 86.8832 14.3687 89.9779 14.3687C90.4398 14.3687 90.9017 14.4391 91.3636 14.5565C93.1881 15.026 94.6431 16.3877 95.2667 18.1955C95.59 19.1581 95.6593 20.2146 95.4514 21.2242H102.288C103.465 21.2242 104.62 21.6937 105.452 22.5624C106.306 23.3841 106.791 24.5345 106.791 25.7554Z" fill="#46B249"/>
<path d="M6.14315 71.9362C5.88911 71.5606 5.70435 60.4086 5.95839 59.9626C6.21244 59.5165 17.1826 56.2765 17.1826 56.2765C17.1826 56.2765 20.9009 50.1254 24.4114 46.6741C25.7971 45.3124 27.8064 44.162 28.3145 44.9368C28.6147 45.4063 28.1297 46.6272 27.4368 47.895C26.4668 49.6793 25.1273 51.5575 25.0119 51.7453C25.0119 51.7453 25.0119 51.7453 25.0119 51.7688C25.0119 51.7688 34.1344 49.421 35.497 49.1628C36.8596 48.9045 38.6611 48.5054 38.9382 49.4445C39.1923 50.3132 36.8827 51.3227 36.7442 51.3932C36.8827 51.3462 40.0468 50.454 40.5087 51.6749C40.8551 52.567 37.5987 54.2809 37.5063 54.3279C37.5987 54.3044 39.1461 53.8818 39.3077 54.6331C39.5849 55.8774 36.1899 57.2861 36.0513 57.3565C36.1206 57.333 37.3908 57.0278 37.4832 57.7322C37.7142 59.446 26.0742 64.1886 22.5176 65.5268C18.9378 66.8416 6.3972 72.3119 6.14315 71.9362ZM124.552 10.6591C124.806 11.0348 124.991 22.1163 124.737 22.5624C124.482 23.0085 113.512 26.2249 113.512 26.2249C113.512 26.2249 109.794 32.3526 106.284 35.7804C104.898 37.1421 102.889 38.2691 102.38 37.5178C102.08 37.0482 102.565 35.8508 103.258 34.583C104.228 32.8222 105.568 30.944 105.683 30.7562V30.7327C105.683 30.7327 96.5836 33.0805 95.1979 33.3152C93.8353 33.5735 92.0339 33.9726 91.7567 33.0335C91.5027 32.1648 93.8122 31.1553 93.9508 31.1083C93.8122 31.1553 90.6481 32.024 90.1862 30.8266C89.8398 29.9344 93.0962 28.244 93.1886 28.1971C93.0962 28.2206 91.5489 28.6432 91.3872 27.8919C91.1101 26.671 94.505 25.2389 94.6436 25.1919C94.5743 25.2154 93.3041 25.5206 93.2117 24.8163C92.9808 23.1259 104.621 18.4068 108.177 17.0686C111.757 15.7304 124.298 10.2835 124.552 10.6591Z" fill="#DF5426"/>
<path d="M84.6885 87.6664C83.834 97.5975 103.95 82.8534 111.34 76.3031C112.772 75.0118 114.25 73.3919 114.158 71.4432C114.042 69.2363 111.918 67.6868 109.839 67.0998C104.458 65.5738 98.8227 68.2972 94.2499 71.5606C94.2499 71.5371 85.4045 79.3787 84.6885 87.6664Z" fill="#F2FFEC"/>
</g>
<defs>
<clipPath id="clip0_35_1075">
<rect width="127" height="91" fill="white"/>
</clipPath>
</defs>
</svg>
